PathFileType	4	(X/Y/Z)	/Users/niels/Desktop/University/Third Semester/Perception and Action/Exam/Gymnastics Motion Tracking/Code for Gym Tracking/Analyzed Data/Webcam_Backflip/id2006_1_trajectory_Sports2D/id2006_1_trajectory_Sports2D_px_person00.trc
DataRate	CameraRate	NumFrames	NumMarkers	Units	OrigDataRate	OrigDataStartFrame	OrigNumFrames
29.797297297297295	29.797297297297295	13	22	m	29.797297297297295	18	148
Frame#	Time	Hip			RHip			RKnee			RAnkle			RBigToe			RSmallToe			RHeel			LHip			LKnee			LAnkle			LBigToe			LSmallToe			LHeel			Neck			Head			Nose			RShoulder			RElbow			RWrist			LShoulder			LElbow			LWrist		
		X1	Y1	Z1	X2	Y2	Z2	X3	Y3	Z3	X4	Y4	Z4	X5	Y5	Z5	X6	Y6	Z6	X7	Y7	Z7	X8	Y8	Z8	X9	Y9	Z9	X10	Y10	Z10	X11	Y11	Z11	X12	Y12	Z12	X13	Y13	Z13	X14	Y14	Z14	X15	Y15	Z15	X16	Y16	Z16	X17	Y17	Z17	X18	Y18	Z18	X19	Y19	Z19	X20	Y20	Z20	X21	Y21	Z21	X22	Y22	Z22
18	0.6040816326530613	0.8532552712964272	-0.747791330324826	0.0	0.8320974297941378	-0.7524498433111203	0.0	0.829663307863183	-1.0654473389782335	0.0	0.6281059570311558	-0.9744912109375815	0.0	0.4885078124999999	-1.2011458740234375	0.0			0.0	0.6023291015625004	-0.9143344726562503	0.0	0.9064763598097773	-0.7614177492403338	0.0	0.9649897146355647	-1.0641958163813858	0.0	0.9275226317517727	-1.0778895407047104	0.0			0.0	0.6565966796875001	-1.0058969726562503	0.0	0.6037456054686456	-0.9866713867187495	0.0	0.9327776994838213	-0.21783301529658808	0.0	1.0217587480831012	-0.020858581228356522	0.0	1.0246049214780766	-0.1338863814158247	0.0	0.8717757262094729	-0.280270698136183	0.0	0.8872601451577647	-0.5689342621659685	0.0	1.0170724366727895	-0.814811600852912	0.0	0.9711044050263883	-0.29319754730968506	0.0	0.9577902118054156	-0.5470659571177309	0.0	1.0071202742453622	-0.7646655622483991	0.0
19	0.6376417233560091	0.8468431600927014	-0.7491550832542935	0.0	0.8211619298787846	-0.7522813682817143	0.0	0.8215662763940688	-1.0654078899792907	0.0	0.6281059570311257	-0.9744912109376077	0.0	0.4885078124999999	-1.2011458740234375	0.0			0.0	0.6023291015625004	-0.9143344726562503	0.0	0.905091524145588	-0.7633374606567142	0.0	0.962893298682695	-1.062897556777299	0.0	0.9275226208489202	-1.0778895367715986	0.0			0.0	0.6565966796875001	-1.0058969726562503	0.0	0.6037456054686122	-0.9866713867187493	0.0	0.9327474338357558	-0.2183951418991956	0.0	1.023225765131568	-0.02101627630433965	0.0	1.025098168240152	-0.13466584417690794	0.0	0.8689750475524425	-0.2822598820906888	0.0	0.8788029243853408	-0.5720044620094453	0.0	1.0001402331265554	-0.8258379113732572	0.0	0.9694185899538467	-0.2957617641877979	0.0	0.9543535736372772	-0.5495302362996477	0.0	0.9987257289941951	-0.7624903871286753	0.0
20	0.671201814058957	0.840605467250142	-0.7506795059642934	0.0	0.8112841123262207	-0.75283399019803	0.0	0.8155743721216272	-1.0648575470602333	0.0	0.6281059570311339	-0.9744912109376006	0.0	0.4885078124999999	-1.2011458740234375	0.0			0.0	0.6023291015625004	-0.9143344726562503	0.0	0.9018305610351914	-0.7651551090013794	0.0	0.9580794512804354	-1.0607045726158977	0.0	0.9275225697028449	-1.0778895204430732	0.0			0.0	0.6565966796875001	-1.0058969726562503	0.0	0.6037456054686212	-0.9866713867187493	0.0	0.9330554904436921	-0.21912588150577225	0.0	1.0249818243986974	-0.021189320938216013	0.0	1.0258547604705186	-0.13573789495925442	0.0	0.8670002720682768	-0.28405139628296766	0.0	0.8697320530233698	-0.5739701678399528	0.0	0.9803412587494521	-0.8371572897056184	0.0	0.9669678576665173	-0.2980730525832619	0.0	0.9496169970668974	-0.5514895916141372	0.0	0.9910447584736625	-0.7580575614093092	0.0
21	0.7047619047619048	0.834627072016254	-0.7520874063234475	0.0	0.8027655253747644	-0.7540630314914643	0.0	0.8117738817243921	-1.0635848624953266	0.0	0.6281059570312297	-0.9744912109375177	0.0	0.4885078124999999	-1.2011458740234375	0.0			0.0	0.6023291015625004	-0.9143344726562503	0.0	0.8965264406586924	-0.7665297208311675	0.0	0.9509498421352681	-1.057707519233161	0.0	0.9275224544995252	-1.0778894847598919	0.0			0.0	0.6565966796875001	-1.0058969726562503	0.0	0.603745605468727	-0.9866713867187499	0.0	0.9335830597541325	-0.21988620094413855	0.0	1.0269411640777968	-0.0213647156923806	0.0	1.026783362445202	-0.13690178400812308	0.0	0.8657674358642419	-0.2853716530651555	0.0	0.8599455537494517	-0.5745876862934347	0.0	0.9580086030800392	-0.8475219042243354	0.0	0.9640284768320673	-0.29982950417050136	0.0	0.9439103280054242	-0.5523805063794729	0.0	0.9846333690325423	-0.7512723851793015	0.0
22	0.7383219954648527	0.8294001534166326	-0.7533239005487602	0.0	0.795805474537254	-0.7558113915878223	0.0	0.8098947068053113	-1.0616745929725537	0.0	0.628105957031475	-0.9744912109373051	0.0	0.4885078124999999	-1.2011458740234375	0.0			0.0	0.6023291015625004	-0.9143344726562503	0.0	0.8900200984353837	-0.7674375290586161	0.0	0.9421696604943212	-1.0543991846484102	0.0	0.9275222594201622	-1.0778894255143483	0.0			0.0	0.6565966796875001	-1.0058969726562503	0.0	0.6037456054689981	-0.9866713867187511	0.0	0.9343483212168997	-0.22058404553303454	0.0	1.0289457986809751	-0.021519926962416804	0.0	1.027856768803837	-0.13799831749005423	0.0	0.8649607506991573	-0.2861284717310376	0.0	0.8496470560540053	-0.5739689022431544	0.0	0.9339160533852207	-0.8555222836481614	0.0	0.9613971312947827	-0.30100663067747063	0.0	0.9385664823278392	-0.5519639808878034	0.0	0.9800362740052948	-0.7431294709944434	0.0
23	0.7718820861678005	0.8258364264033133	-0.7545245189765137	0.0	0.7907524531899203	-0.7579624404311859	0.0	0.8092612957064199	-1.0596054064489502	0.0	0.6281059570319222	-0.9744912109369174	0.0	0.4885078124999999	-1.2011458740234375	0.0			0.0	0.6023291015625004	-0.9143344726562503	0.0	0.8840314761331045	-0.7682027867374994	0.0	0.9326530997163914	-1.05149259840876	0.0	0.9275219983538553	-1.0778893479145522	0.0			0.0	0.6565966796875001	-1.0058969726562503	0.0	0.6037456054694925	-0.9866713867187534	0.0	0.9354338077298932	-0.221214702019315	0.0	1.0307565955619185	-0.021675085544862756	0.0	1.028985379883969	-0.13895980527574084	0.0	0.8642041616091923	-0.28641930449181385	0.0	0.8392235595234747	-0.5723613942443568	0.0	0.9091157725360522	-0.8598640720127322	0.0	0.9598866516359676	-0.3018423330477745	0.0	0.9348764895386261	-0.5504307816284422	0.0	0.9774632727029849	-0.7354518738816951	0.0
24	0.8054421768707483	0.824857586113464	-0.7557851813977483	0.0	0.7881911781563621	-0.7604013505641639	0.0	0.809054077773579	-1.057968564706233	0.0	0.6281059570325662	-0.9744912109363588	0.0	0.4885078124999999	-1.2011458740234375	0.0			0.0	0.6023291015625004	-0.9143344726562503	0.0	0.8802763165430108	-0.7691375311710771	0.0	0.9233299421920371	-1.0495483956471696	0.0	0.9275217480778483	-1.07788927657396	0.0			0.0	0.6565966796875001	-1.0058969726562503	0.0	0.6037456054702046	-0.9866713867187569	0.0	0.9368697957559599	-0.22186166107924693	0.0	1.0321583697043408	-0.021882487101419986	0.0	1.0299853706488173	-0.13982487722253342	0.0	0.863284814816733	-0.2864612215298845	0.0	0.8290590779542463	-0.570075519007212	0.0	0.8847733398788289	-0.8601542228740652	0.0	0.959854205493451	-0.302681645720841	0.0	0.9332458042207866	-0.5482668023298334	0.0	0.9766170467029973	-0.7298271038681327	0.0
25	0.8390022675736961	0.8267150339031913	-0.756955511302717	0.0	0.7885827845275573	-0.7628323039585139	0.0	0.8086775335284246	-1.057081017233953	0.0	0.628105957033266	-0.9744912109357515	0.0	0.4885078124999999	-1.2011458740234375	0.0			0.0	0.6023291015625004	-0.9143344726562503	0.0	0.8793669211572773	-0.7701624120082023	0.0	0.9147677988790349	-1.0487382384689568	0.0	0.9275216875299009	-1.0778892670267348	0.0			0.0	0.6565966796875001	-1.0058969726562503	0.0	0.6037456054709788	-0.9866713867187605	0.0	0.9385694845814222	-0.2226368397526852	0.0	1.0330791260028072	-0.022162359278811244	0.0	1.0307002543813453	-0.1406800205877881	0.0	0.8622599877172508	-0.28652321769668326	0.0	0.8195071279382883	-0.5675483207481904	0.0	0.8620731616207671	-0.8572230825009465	0.0	0.9611628904619433	-0.3037731447040799	0.0	0.9332475089804961	-0.5460572699365444	0.0	0.9769565281004992	-0.7268646240492361	0.0
26	0.872562358276644	0.8308339059513903	-0.757747804782387	0.0	0.7918496844912645	-0.7648656580905943	0.0	0.8079458397241467	-1.056879418174252	0.0	0.6281059570336436	-0.9744912109354231	0.0	0.4885078124999999	-1.2011458740234375	0.0			0.0	0.6023291015625004	-0.9143344726562503	0.0	0.8806540000173776	-0.7709384187480307	0.0	0.9071069670248303	-1.0488921356494434	0.0	0.9275221261689097	-1.0778894134125534	0.0			0.0	0.6565966796875001	-1.0058969726562503	0.0	0.6037456054713972	-0.9866713867187625	0.0	0.9403846977971212	-0.22360296890610845	0.0	1.033537382151953	-0.022477433229242828	0.0	1.031084099325719	-0.14160144849413303	0.0	0.8613659921673951	-0.2868276225720474	0.0	0.8109041397987393	-0.5651859322062184	0.0	0.8420081625065888	-0.8523979246654411	0.0	0.963472495537409	-0.30514729746504915	0.0	0.934133390971923	-0.5442940960828478	0.0	0.9780230774219608	-0.7262986239655163	0.0
27	0.9061224489795918	0.8363187409806454	-0.7579263274779797	0.0	0.7973714878396163	-0.7662541464233086	0.0	0.8070525130445494	-1.0570768630298442	0.0	0.6281059570329938	-0.974491210935985	0.0	0.4885078124999999	-1.2011458740234375	0.0			0.0	0.6023291015625004	-0.9143344726562503	0.0	0.883058546008164	-0.7712029730183594	0.0	0.9003873989517378	-1.049679029804114	0.0	0.9275234873646624	-1.077889841858961	0.0			0.0	0.6565966796875001	-1.0058969726562503	0.0	0.6037456054706805	-0.9866713867187591	0.0	0.9422081133325457	-0.22475069954001925	0.0	1.0335875769819365	-0.02278775473447453	0.0	1.0312174478370146	-0.14260922460426784	0.0	0.8608101335724772	-0.2874717953179312	0.0	0.803525884435947	-0.5631749411809678	0.0	0.8251787165406673	-0.846725291811255	0.0	0.9664296223922909	-0.3066636034455401	0.0	0.9352015378816378	-0.54323694333755	0.0	0.9794675734779106	-0.7274115715512557	0.0
28	0.9396825396825397	0.842411101374407	-0.7573188790573077	0.0	0.8042162240315406	-0.7668896653178974	0.0	0.80639912167752	-1.057373991741982	0.0	0.6281059570302797	-0.9744912109383362	0.0	0.4885078124999999	-1.2011458740234375	0.0			0.0	0.6023291015625004	-0.9143344726562503	0.0	0.8857933626759851	-0.7708177341308157	0.0	0.8947633717525039	-1.0507578256041952	0.0	0.9275261937039833	-1.0778906735419616	0.0			0.0	0.6565966796875001	-1.0058969726562503	0.0	0.6037456054676821	-0.9866713867187449	0.0	0.943977492300728	-0.22601743138910774	0.0	1.0333913184450947	-0.023125697477683307	0.0	1.0312736146773298	-0.14364929960971815	0.0	0.8606353077370338	-0.28842019064969016	0.0	0.7975282635733533	-0.5615492749292736	0.0	0.811827640023705	-0.8407790249824358	0.0	0.9696102353567752	-0.30815533899088277	0.0	0.9360161731495583	-0.5428934771785168	0.0	0.9809835438033068	-0.7293807384647303	0.0
29	0.9732426303854875	0.8485815936939157	-0.7558405852585665	0.0	0.811379320060713	-0.7667247593720666	0.0	0.8064064975545018	-1.0576256829038828	0.0	0.6281059570243392	-0.9744912109434853	0.0	0.4885078124999999	-1.2011458740234375	0.0			0.0	0.6023291015625004	-0.9143344726562503	0.0	0.888488864001288	-0.7697476510392939	0.0	0.8903976710885931	-1.0518714172680959	0.0	0.9275303896599396	-1.077891938437855	0.0			0.0	0.6565966796875001	-1.0058969726562503	0.0	0.6037456054611164	-0.9866713867187138	0.0	0.9456186103228148	-0.22730380026950314	0.0	1.0331790780690868	-0.023603659463970982	0.0	1.031406858705471	-0.1446496704635156	0.0	0.8607426778282216	-0.28950179217618016	0.0	0.7929420789394102	-0.5602902986880909	0.0	0.801997174330078	-0.8348273303754129	0.0	0.9725296051434438	-0.3095188914362143	0.0	0.936544642454471	-0.5430949412922941	0.0	0.9823445763769025	-0.73153611962321	0.0
30	1.0068027210884354	0.8544646786545018	-0.7536051155712191	0.0	0.8179988516946792	-0.7658357080384416	0.0	0.8074251181048323	-1.0578326230992676	0.0	0.6281059570144658	-0.9744912109520466	0.0	0.4885078124999999	-1.2011458740234375	0.0			0.0	0.6023291015625004	-0.9143344726562503	0.0	0.8910754372208526	-0.7681591138192966	0.0	0.887328064217031	-1.052854020153542	0.0	0.9275354515505342	-1.0778934260007573	0.0			0.0	0.6565966796875001	-1.0058969726562503	0.0	0.6037456054502007	-0.9866713867186622	0.0	0.9470496215957912	-0.22848306041716854	0.0	1.0330644641592757	-0.024342968157460447	0.0	1.0316443869729452	-0.14555793888334548	0.0	0.8610003507711378	-0.29043133667685905	0.0	0.7897503026664442	-0.5593001193493989	0.0	0.7956041874274181	-0.8290839413310356	0.0	0.9748991853876242	-0.31069327926344464	0.0	0.9370944676579358	-0.5436013358941012	0.0	0.9834709135167411	-0.7335279151546634	0.0
